<svg width="28" height="28" viewBox="0 0 28 28" fill="none" xmlns="http://www.w3.org/2000/svg">
<path d="M11.1651 21.9567C10.9434 21.9567 10.7217 21.875 10.5467 21.7L3.46505 14.6183C3.12672 14.28 3.12672 13.72 3.46505 13.3817L10.5467 6.30001C10.8851 5.96168 11.4451 5.96168 11.7834 6.30001C12.1217 6.63835 12.1217 7.19835 11.7834 7.53668L5.32005 14L11.7834 20.4634C12.1217 20.8017 12.1217 21.3617 11.7834 21.7C11.6201 21.875 11.3867 21.9567 11.1651 21.9567Z" fill="white"/>
<path d="M23.9166 14.875H4.28162C3.80328 14.875 3.40662 14.4783 3.40662 14C3.40662 13.5217 3.80328 13.125 4.28162 13.125H23.9166C24.3949 13.125 24.7916 13.5217 24.7916 14C24.7916 14.4783 24.3949 14.875 23.9166 14.875Z" fill="white"/>
</svg>
