<svg width="24" height="16" viewBox="0 0 24 16" fill="none" xmlns="http://www.w3.org/2000/svg">
<path fill-rule="evenodd" clip-rule="evenodd" d="M0 3.91484H6.19934C6.88366 3.89333 7.56392 4.02624 8.18807 4.30341C8.81221 4.58058 9.36371 4.99467 9.80037 5.51399C10.8033 6.63047 11.1679 8.01126 11.1679 9.45689C11.1679 10.9025 10.8031 12.3046 9.80037 13.4217C9.35293 13.9269 8.79885 14.3298 8.17686 14.6022C7.55488 14.8747 6.87998 15.01 6.19934 14.9989H0V12.0197H6.19934C6.8602 12.0197 7.43014 11.8226 7.79469 11.3405C8.19617 10.7944 8.39708 10.1301 8.36441 9.45668C8.38698 8.7913 8.1868 8.13706 7.79469 7.59473C7.60578 7.35997 7.36207 7.17363 7.0843 7.05157C6.80654 6.92952 6.50293 6.87536 6.19934 6.8937H0V3.91484Z" fill="#FE4E30"/>
<path d="M16.9686 3.91217H19.5669V9.17596H16.9686V3.91217Z" fill="#FE4E30"/>
<path fill-rule="evenodd" clip-rule="evenodd" d="M24 3.91217V10.0588C24 11.5341 23.4985 12.741 22.3362 13.6574C21.1929 14.5562 19.7652 15.0309 18.3026 14.9984C16.7763 14.9984 15.3624 14.6407 14.2001 13.6574C13.6683 13.2173 13.243 12.6658 12.9551 12.0433C12.6673 11.4207 12.5242 10.7428 12.5363 10.0588V3.91217H15.5669V10.0588C15.5458 10.385 15.6078 10.7112 15.7471 11.0078C15.8864 11.3045 16.0987 11.5622 16.3647 11.7576C16.8662 12.1823 17.5955 12.3159 18.3019 12.3159C18.9988 12.3389 19.6852 12.1434 20.262 11.7576C20.8318 11.3329 21.0369 10.7743 21.0369 10.0588V3.91217H24Z" fill="#FE4E30"/>
</svg>
