<svg width="32" height="32" viewBox="0 0 32 32" fill="none" xmlns="http://www.w3.org/2000/svg">
<path d="M16 28.8667C15.5867 28.8667 15.1867 28.8133 14.8533 28.6933C9.76001 26.9467 1.66667 20.7467 1.66667 11.5867C1.66667 6.92 5.44001 3.13333 10.08 3.13333C12.3333 3.13333 14.44 4.01333 16 5.58666C17.56 4.01333 19.6667 3.13333 21.92 3.13333C26.56 3.13333 30.3333 6.93333 30.3333 11.5867C30.3333 20.76 22.24 26.9467 17.1467 28.6933C16.8133 28.8133 16.4133 28.8667 16 28.8667ZM10.08 5.13333C6.54667 5.13333 3.66667 8.02666 3.66667 11.5867C3.66667 20.6933 12.4267 25.76 15.5067 26.8133C15.7467 26.8933 16.2667 26.8933 16.5067 26.8133C19.5733 25.76 28.3467 20.7067 28.3467 11.5867C28.3467 8.02666 25.4667 5.13333 21.9333 5.13333C19.9067 5.13333 18.0267 6.08 16.8133 7.72C16.44 8.22666 15.5867 8.22666 15.2133 7.72C13.9733 6.06666 12.1067 5.13333 10.08 5.13333Z" fill="white"/>
</svg>
